<svg xmlns="http://www.w3.org/2000/svg" width="960" height="560" viewBox="0 0 960 560">
<rect width="100%" height="100%" fill="white"/>
<text x="480.0" y="28" text-anchor="middle" font-family="sans-serif" font-size="18">Compact / explicit paired ratio</text>
<line x1="90" y1="490" x2="740" y2="490" stroke="#263238"/>
<line x1="90" y1="55" x2="90" y2="490" stroke="#263238"/>
<text x="415.0" y="542" text-anchor="middle" font-family="sans-serif" font-size="13">q (chords)</text>
<text x="20" y="280.0" text-anchor="middle" transform="rotate(-90 20 280.0)" font-family="sans-serif" font-size="13">median paired ratio</text>
<line x1="90" y1="466.7070734795826" x2="740" y2="466.7070734795826" stroke="#666" stroke-dasharray="5 4"/>
<path d="M 167.05,463.36 L 248.90,466.45 L 412.60,469.50 L 740.00,472.09" fill="none" stroke="#007f73" stroke-width="2"/>
<circle cx="167.05" cy="463.36" r="3" fill="#007f73"/>
<circle cx="248.90" cy="466.45" r="3" fill="#007f73"/>
<circle cx="412.60" cy="469.50" r="3" fill="#007f73"/>
<circle cx="740.00" cy="472.09" r="3" fill="#007f73"/>
<text x="752" y="55" font-family="sans-serif" font-size="10" fill="#007f73">dense-conflict:solve-from-canonical-instance:explicit-hopcroft-karp</text>
<path d="M 167.05,478.37 L 248.90,480.08 L 412.60,481.39 L 740.00,482.57" fill="none" stroke="#c65d00" stroke-width="2"/>
<circle cx="167.05" cy="478.37" r="3" fill="#c65d00"/>
<circle cx="248.90" cy="480.08" r="3" fill="#c65d00"/>
<circle cx="412.60" cy="481.39" r="3" fill="#c65d00"/>
<circle cx="740.00" cy="482.57" r="3" fill="#c65d00"/>
<text x="752" y="71" font-family="sans-serif" font-size="10" fill="#c65d00">dense-conflict:solve-from-canonical-instance:explicit-c0-flow</text>
<path d="M 167.05,420.12 L 248.90,464.32 L 412.60,483.39 L 740.00,488.26" fill="none" stroke="#4c5f7a" stroke-width="2"/>
<circle cx="167.05" cy="420.12" r="3" fill="#4c5f7a"/>
<circle cx="248.90" cy="464.32" r="3" fill="#4c5f7a"/>
<circle cx="412.60" cy="483.39" r="3" fill="#4c5f7a"/>
<circle cx="740.00" cy="488.26" r="3" fill="#4c5f7a"/>
<text x="752" y="87" font-family="sans-serif" font-size="10" fill="#4c5f7a">dense-conflict:representation-and-solver-kernel:explicit-hopcroft-karp</text>
<path d="M 167.05,486.60 L 248.90,488.44 L 412.60,489.50 L 740.00,490.00" fill="none" stroke="#a33f5d" stroke-width="2"/>
<circle cx="167.05" cy="486.60" r="3" fill="#a33f5d"/>
<circle cx="248.90" cy="488.44" r="3" fill="#a33f5d"/>
<circle cx="412.60" cy="489.50" r="3" fill="#a33f5d"/>
<circle cx="740.00" cy="490.00" r="3" fill="#a33f5d"/>
<text x="752" y="103" font-family="sans-serif" font-size="10" fill="#a33f5d">dense-conflict:representation-and-solver-kernel:explicit-c0-flow</text>
<path d="M 90.00,461.58 L 90.00,455.51 L 91.28,461.98 L 97.35,460.59" fill="none" stroke="#6b5ca5" stroke-width="2"/>
<circle cx="90.00" cy="461.58" r="3" fill="#6b5ca5"/>
<circle cx="90.00" cy="455.51" r="3" fill="#6b5ca5"/>
<circle cx="91.28" cy="461.98" r="3" fill="#6b5ca5"/>
<circle cx="97.35" cy="460.59" r="3" fill="#6b5ca5"/>
<text x="752" y="119" font-family="sans-serif" font-size="10" fill="#6b5ca5">random-connected:solve-from-canonical-instance:explicit-hopcroft-karp</text>
<path d="M 90.00,464.86 L 90.00,463.85 L 91.28,466.35 L 97.35,467.06" fill="none" stroke="#2e7d32" stroke-width="2"/>
<circle cx="90.00" cy="464.86" r="3" fill="#2e7d32"/>
<circle cx="90.00" cy="463.85" r="3" fill="#2e7d32"/>
<circle cx="91.28" cy="466.35" r="3" fill="#2e7d32"/>
<circle cx="97.35" cy="467.06" r="3" fill="#2e7d32"/>
<text x="752" y="135" font-family="sans-serif" font-size="10" fill="#2e7d32">random-connected:solve-from-canonical-instance:explicit-c0-flow</text>
<path d="M 90.00,119.54 L 90.00,55.00 L 91.28,177.16 L 97.35,95.45" fill="none" stroke="#8d6e63" stroke-width="2"/>
<circle cx="90.00" cy="119.54" r="3" fill="#8d6e63"/>
<circle cx="90.00" cy="55.00" r="3" fill="#8d6e63"/>
<circle cx="91.28" cy="177.16" r="3" fill="#8d6e63"/>
<circle cx="97.35" cy="95.45" r="3" fill="#8d6e63"/>
<text x="752" y="151" font-family="sans-serif" font-size="10" fill="#8d6e63">random-connected:representation-and-solver-kernel:explicit-hopcroft-karp</text>
<path d="M 90.00,456.46 L 90.00,448.00 L 91.28,463.04 L 97.35,468.30" fill="none" stroke="#007f73" stroke-width="2"/>
<circle cx="90.00" cy="456.46" r="3" fill="#007f73"/>
<circle cx="90.00" cy="448.00" r="3" fill="#007f73"/>
<circle cx="91.28" cy="463.04" r="3" fill="#007f73"/>
<circle cx="97.35" cy="468.30" r="3" fill="#007f73"/>
<text x="752" y="167" font-family="sans-serif" font-size="10" fill="#007f73">random-connected:representation-and-solver-kernel:explicit-c0-flow</text>
<path d="M 95.44,466.74 L 100.55,466.77 L 105.67,466.82 L 114.62,466.78" fill="none" stroke="#c65d00" stroke-width="2"/>
<circle cx="95.44" cy="466.74" r="3" fill="#c65d00"/>
<circle cx="100.55" cy="466.77" r="3" fill="#c65d00"/>
<circle cx="105.67" cy="466.82" r="3" fill="#c65d00"/>
<circle cx="114.62" cy="466.78" r="3" fill="#c65d00"/>
<text x="752" y="183" font-family="sans-serif" font-size="10" fill="#c65d00">representation-crossover:solve-from-canonical-instance:explicit-hopcroft-karp</text>
<path d="M 95.44,468.25 L 100.55,468.83 L 105.67,469.04 L 114.62,469.08" fill="none" stroke="#4c5f7a" stroke-width="2"/>
<circle cx="95.44" cy="468.25" r="3" fill="#4c5f7a"/>
<circle cx="100.55" cy="468.83" r="3" fill="#4c5f7a"/>
<circle cx="105.67" cy="469.04" r="3" fill="#4c5f7a"/>
<circle cx="114.62" cy="469.08" r="3" fill="#4c5f7a"/>
<text x="752" y="199" font-family="sans-serif" font-size="10" fill="#4c5f7a">representation-crossover:solve-from-canonical-instance:explicit-c0-flow</text>
<path d="M 95.44,436.74 L 100.55,456.67 L 105.67,465.79 L 114.62,474.71" fill="none" stroke="#a33f5d" stroke-width="2"/>
<circle cx="95.44" cy="436.74" r="3" fill="#a33f5d"/>
<circle cx="100.55" cy="456.67" r="3" fill="#a33f5d"/>
<circle cx="105.67" cy="465.79" r="3" fill="#a33f5d"/>
<circle cx="114.62" cy="474.71" r="3" fill="#a33f5d"/>
<text x="752" y="215" font-family="sans-serif" font-size="10" fill="#a33f5d">representation-crossover:representation-and-solver-kernel:explicit-hopcroft-karp</text>
<path d="M 95.44,488.23 L 100.55,489.07 L 105.67,489.40 L 114.62,489.66" fill="none" stroke="#6b5ca5" stroke-width="2"/>
<circle cx="95.44" cy="488.23" r="3" fill="#6b5ca5"/>
<circle cx="100.55" cy="489.07" r="3" fill="#6b5ca5"/>
<circle cx="105.67" cy="489.40" r="3" fill="#6b5ca5"/>
<circle cx="114.62" cy="489.66" r="3" fill="#6b5ca5"/>
<text x="752" y="231" font-family="sans-serif" font-size="10" fill="#6b5ca5">representation-crossover:representation-and-solver-kernel:explicit-c0-flow</text>
</svg>
