<svg xmlns="http://www.w3.org/2000/svg" width="960" height="560" viewBox="0 0 960 560">
<rect width="100%" height="100%" fill="white"/>
<text x="480.0" y="28" text-anchor="middle" font-family="sans-serif" font-size="18">Construction time versus K or M</text>
<line x1="90" y1="490" x2="740" y2="490" stroke="#263238"/>
<line x1="90" y1="55" x2="90" y2="490" stroke="#263238"/>
<text x="415.0" y="542" text-anchor="middle" font-family="sans-serif" font-size="13">log10 K (explicit) or M (compact)</text>
<text x="20" y="280.0" text-anchor="middle" transform="rotate(-90 20 280.0)" font-family="sans-serif" font-size="13">log10 construction time (ns)</text>
<path d="M 122.49,454.45 L 122.49,454.45 L 187.47,425.92 L 206.48,418.51 L 219.96,412.72 L 238.97,404.94 L 252.45,399.77 L 284.95,388.99 L 301.96,379.57 L 317.44,371.60" fill="none" stroke="#007f73" stroke-width="2"/>
<circle cx="122.49" cy="454.45" r="3" fill="#007f73"/>
<circle cx="122.49" cy="454.45" r="3" fill="#007f73"/>
<circle cx="187.47" cy="425.92" r="3" fill="#007f73"/>
<circle cx="206.48" cy="418.51" r="3" fill="#007f73"/>
<circle cx="219.96" cy="412.72" r="3" fill="#007f73"/>
<circle cx="238.97" cy="404.94" r="3" fill="#007f73"/>
<circle cx="252.45" cy="399.77" r="3" fill="#007f73"/>
<circle cx="284.95" cy="388.99" r="3" fill="#007f73"/>
<circle cx="301.96" cy="379.57" r="3" fill="#007f73"/>
<circle cx="317.44" cy="371.60" r="3" fill="#007f73"/>
<text x="752" y="55" font-family="sans-serif" font-size="10" fill="#007f73">prepared-exposed-edges:comb-staircase:compact-mrd</text>
<path d="M 367.19,305.00 L 399.11,286.47 L 431.95,262.81 L 464.55,243.70 L 497.06,227.57 L 529.77,210.77 L 562.34,193.33" fill="none" stroke="#c65d00" stroke-width="2"/>
<circle cx="367.19" cy="305.00" r="3" fill="#c65d00"/>
<circle cx="399.11" cy="286.47" r="3" fill="#c65d00"/>
<circle cx="431.95" cy="262.81" r="3" fill="#c65d00"/>
<circle cx="464.55" cy="243.70" r="3" fill="#c65d00"/>
<circle cx="497.06" cy="227.57" r="3" fill="#c65d00"/>
<circle cx="529.77" cy="210.77" r="3" fill="#c65d00"/>
<circle cx="562.34" cy="193.33" r="3" fill="#c65d00"/>
<text x="752" y="71" font-family="sans-serif" font-size="10" fill="#c65d00">prepared-exposed-edges:dense-conflict:compact-mrd</text>
<path d="M 360.39,365.92 L 420.43,331.04 L 482.73,290.87 L 546.31,244.41 L 610.58,194.35 L 675.20,143.64 L 740.00,92.46" fill="none" stroke="#4c5f7a" stroke-width="2"/>
<circle cx="360.39" cy="365.92" r="3" fill="#4c5f7a"/>
<circle cx="420.43" cy="331.04" r="3" fill="#4c5f7a"/>
<circle cx="482.73" cy="290.87" r="3" fill="#4c5f7a"/>
<circle cx="546.31" cy="244.41" r="3" fill="#4c5f7a"/>
<circle cx="610.58" cy="194.35" r="3" fill="#4c5f7a"/>
<circle cx="675.20" cy="143.64" r="3" fill="#4c5f7a"/>
<circle cx="740.00" cy="92.46" r="3" fill="#4c5f7a"/>
<text x="752" y="87" font-family="sans-serif" font-size="10" fill="#4c5f7a">prepared-exposed-edges:dense-conflict:explicit-hopcroft-karp</text>
<path d="M 360.39,288.31 L 420.43,254.07 L 482.73,217.93 L 546.31,180.44 L 610.58,140.75 L 675.20,99.12 L 740.00,55.00" fill="none" stroke="#a33f5d" stroke-width="2"/>
<circle cx="360.39" cy="288.31" r="3" fill="#a33f5d"/>
<circle cx="420.43" cy="254.07" r="3" fill="#a33f5d"/>
<circle cx="482.73" cy="217.93" r="3" fill="#a33f5d"/>
<circle cx="546.31" cy="180.44" r="3" fill="#a33f5d"/>
<circle cx="610.58" cy="140.75" r="3" fill="#a33f5d"/>
<circle cx="675.20" cy="99.12" r="3" fill="#a33f5d"/>
<circle cx="740.00" cy="55.00" r="3" fill="#a33f5d"/>
<text x="752" y="103" font-family="sans-serif" font-size="10" fill="#a33f5d">prepared-exposed-edges:dense-conflict:explicit-c0-flow</text>
<path d="M 192.99,403.10 L 225.48,383.43 L 289.15,346.75 L 300.40,341.72 L 310.33,336.33 L 350.83,312.72 L 357.36,309.58 L 396.74,285.32 L 409.12,279.37 L 434.58,252.59" fill="none" stroke="#6b5ca5" stroke-width="2"/>
<circle cx="192.99" cy="403.10" r="3" fill="#6b5ca5"/>
<circle cx="225.48" cy="383.43" r="3" fill="#6b5ca5"/>
<circle cx="289.15" cy="346.75" r="3" fill="#6b5ca5"/>
<circle cx="300.40" cy="341.72" r="3" fill="#6b5ca5"/>
<circle cx="310.33" cy="336.33" r="3" fill="#6b5ca5"/>
<circle cx="350.83" cy="312.72" r="3" fill="#6b5ca5"/>
<circle cx="357.36" cy="309.58" r="3" fill="#6b5ca5"/>
<circle cx="396.74" cy="285.32" r="3" fill="#6b5ca5"/>
<circle cx="409.12" cy="279.37" r="3" fill="#6b5ca5"/>
<circle cx="434.58" cy="252.59" r="3" fill="#6b5ca5"/>
<text x="752" y="119" font-family="sans-serif" font-size="10" fill="#6b5ca5">prepared-exposed-edges:random-connected:compact-mrd</text>
<path d="M 90.00,490.00 L 122.49,490.00 L 213.70,448.61 L 240.88,436.44 L 256.65,423.83 L 318.16,392.90 L 330.46,384.29 L 381.02,355.58 L 399.05,344.71 L 449.85,312.37" fill="none" stroke="#2e7d32" stroke-width="2"/>
<circle cx="90.00" cy="490.00" r="3" fill="#2e7d32"/>
<circle cx="122.49" cy="490.00" r="3" fill="#2e7d32"/>
<circle cx="213.70" cy="448.61" r="3" fill="#2e7d32"/>
<circle cx="240.88" cy="436.44" r="3" fill="#2e7d32"/>
<circle cx="256.65" cy="423.83" r="3" fill="#2e7d32"/>
<circle cx="318.16" cy="392.90" r="3" fill="#2e7d32"/>
<circle cx="330.46" cy="384.29" r="3" fill="#2e7d32"/>
<circle cx="381.02" cy="355.58" r="3" fill="#2e7d32"/>
<circle cx="399.05" cy="344.71" r="3" fill="#2e7d32"/>
<circle cx="449.85" cy="312.37" r="3" fill="#2e7d32"/>
<text x="752" y="135" font-family="sans-serif" font-size="10" fill="#2e7d32">prepared-exposed-edges:random-connected:explicit-hopcroft-karp</text>
<path d="M 90.00,425.92 L 122.49,413.99 L 213.70,368.38 L 240.88,354.88 L 256.65,345.09 L 318.16,313.10 L 330.46,305.20 L 381.02,277.01 L 399.05,266.99 L 449.85,237.26" fill="none" stroke="#8d6e63" stroke-width="2"/>
<circle cx="90.00" cy="425.92" r="3" fill="#8d6e63"/>
<circle cx="122.49" cy="413.99" r="3" fill="#8d6e63"/>
<circle cx="213.70" cy="368.38" r="3" fill="#8d6e63"/>
<circle cx="240.88" cy="354.88" r="3" fill="#8d6e63"/>
<circle cx="256.65" cy="345.09" r="3" fill="#8d6e63"/>
<circle cx="318.16" cy="313.10" r="3" fill="#8d6e63"/>
<circle cx="330.46" cy="305.20" r="3" fill="#8d6e63"/>
<circle cx="381.02" cy="277.01" r="3" fill="#8d6e63"/>
<circle cx="399.05" cy="266.99" r="3" fill="#8d6e63"/>
<circle cx="449.85" cy="237.26" r="3" fill="#8d6e63"/>
<text x="752" y="151" font-family="sans-serif" font-size="10" fill="#8d6e63">prepared-exposed-edges:random-connected:explicit-c0-flow</text>
<path d="M 274.30,372.68 L 292.38,364.09 L 305.39,358.43 L 323.92,347.16 L 337.17,339.03 L 353.96,327.59 L 369.30,318.84 L 386.20,314.37 L 401.61,305.77 L 418.05,299.75" fill="none" stroke="#007f73" stroke-width="2"/>
<circle cx="274.30" cy="372.68" r="3" fill="#007f73"/>
<circle cx="292.38" cy="364.09" r="3" fill="#007f73"/>
<circle cx="305.39" cy="358.43" r="3" fill="#007f73"/>
<circle cx="323.92" cy="347.16" r="3" fill="#007f73"/>
<circle cx="337.17" cy="339.03" r="3" fill="#007f73"/>
<circle cx="353.96" cy="327.59" r="3" fill="#007f73"/>
<circle cx="369.30" cy="318.84" r="3" fill="#007f73"/>
<circle cx="386.20" cy="314.37" r="3" fill="#007f73"/>
<circle cx="401.61" cy="305.77" r="3" fill="#007f73"/>
<circle cx="418.05" cy="299.75" r="3" fill="#007f73"/>
<text x="752" y="167" font-family="sans-serif" font-size="10" fill="#007f73">prepared-exposed-edges:representation-crossover:compact-mrd</text>
<path d="M 284.95,411.44 L 322.96,389.53 L 349.93,377.50 L 387.94,354.33 L 414.91,339.26 L 448.93,316.64 L 479.89,295.06 L 513.91,269.89 L 544.87,245.49 L 577.87,219.11" fill="none" stroke="#c65d00" stroke-width="2"/>
<circle cx="284.95" cy="411.44" r="3" fill="#c65d00"/>
<circle cx="322.96" cy="389.53" r="3" fill="#c65d00"/>
<circle cx="349.93" cy="377.50" r="3" fill="#c65d00"/>
<circle cx="387.94" cy="354.33" r="3" fill="#c65d00"/>
<circle cx="414.91" cy="339.26" r="3" fill="#c65d00"/>
<circle cx="448.93" cy="316.64" r="3" fill="#c65d00"/>
<circle cx="479.89" cy="295.06" r="3" fill="#c65d00"/>
<circle cx="513.91" cy="269.89" r="3" fill="#c65d00"/>
<circle cx="544.87" cy="245.49" r="3" fill="#c65d00"/>
<circle cx="577.87" cy="219.11" r="3" fill="#c65d00"/>
<text x="752" y="183" font-family="sans-serif" font-size="10" fill="#c65d00">prepared-exposed-edges:representation-crossover:explicit-hopcroft-karp</text>
<path d="M 284.95,330.54 L 322.96,309.54 L 349.93,294.65 L 387.94,272.20 L 414.91,257.43 L 448.93,237.76 L 479.89,219.73 L 513.91,199.97 L 544.87,181.62 L 577.87,161.10" fill="none" stroke="#4c5f7a" stroke-width="2"/>
<circle cx="284.95" cy="330.54" r="3" fill="#4c5f7a"/>
<circle cx="322.96" cy="309.54" r="3" fill="#4c5f7a"/>
<circle cx="349.93" cy="294.65" r="3" fill="#4c5f7a"/>
<circle cx="387.94" cy="272.20" r="3" fill="#4c5f7a"/>
<circle cx="414.91" cy="257.43" r="3" fill="#4c5f7a"/>
<circle cx="448.93" cy="237.76" r="3" fill="#4c5f7a"/>
<circle cx="479.89" cy="219.73" r="3" fill="#4c5f7a"/>
<circle cx="513.91" cy="199.97" r="3" fill="#4c5f7a"/>
<circle cx="544.87" cy="181.62" r="3" fill="#4c5f7a"/>
<circle cx="577.87" cy="161.10" r="3" fill="#4c5f7a"/>
<text x="752" y="199" font-family="sans-serif" font-size="10" fill="#4c5f7a">prepared-exposed-edges:representation-crossover:explicit-c0-flow</text>
<path d="M 249.43,399.75 L 283.46,386.54 L 316.70,369.81 L 349.56,354.47 L 382.23,337.72 L 414.82,319.75 L 447.35,299.38 L 479.87,277.65 L 512.37,260.07 L 544.87,242.42" fill="none" stroke="#a33f5d" stroke-width="2"/>
<circle cx="249.43" cy="399.75" r="3" fill="#a33f5d"/>
<circle cx="283.46" cy="386.54" r="3" fill="#a33f5d"/>
<circle cx="316.70" cy="369.81" r="3" fill="#a33f5d"/>
<circle cx="349.56" cy="354.47" r="3" fill="#a33f5d"/>
<circle cx="382.23" cy="337.72" r="3" fill="#a33f5d"/>
<circle cx="414.82" cy="319.75" r="3" fill="#a33f5d"/>
<circle cx="447.35" cy="299.38" r="3" fill="#a33f5d"/>
<circle cx="479.87" cy="277.65" r="3" fill="#a33f5d"/>
<circle cx="512.37" cy="260.07" r="3" fill="#a33f5d"/>
<circle cx="544.87" cy="242.42" r="3" fill="#a33f5d"/>
<text x="752" y="215" font-family="sans-serif" font-size="10" fill="#a33f5d">prepared-exposed-edges:sparse-conflict:compact-mrd</text>
<path d="M 283.46,385.60 L 316.70,369.81 L 349.56,354.74 L 382.23,337.65 L 414.82,320.55 L 447.35,297.16 L 479.87,277.77 L 512.37,260.26 L 544.87,242.22 L 577.36,223.75" fill="none" stroke="#6b5ca5" stroke-width="2"/>
<circle cx="283.46" cy="385.60" r="3" fill="#6b5ca5"/>
<circle cx="316.70" cy="369.81" r="3" fill="#6b5ca5"/>
<circle cx="349.56" cy="354.74" r="3" fill="#6b5ca5"/>
<circle cx="382.23" cy="337.65" r="3" fill="#6b5ca5"/>
<circle cx="414.82" cy="320.55" r="3" fill="#6b5ca5"/>
<circle cx="447.35" cy="297.16" r="3" fill="#6b5ca5"/>
<circle cx="479.87" cy="277.77" r="3" fill="#6b5ca5"/>
<circle cx="512.37" cy="260.26" r="3" fill="#6b5ca5"/>
<circle cx="544.87" cy="242.22" r="3" fill="#6b5ca5"/>
<circle cx="577.36" cy="223.75" r="3" fill="#6b5ca5"/>
<text x="752" y="231" font-family="sans-serif" font-size="10" fill="#6b5ca5">prepared-exposed-edges:supported-holes:compact-mrd</text>
</svg>
