<svg xmlns="http://www.w3.org/2000/svg" width="900" height="540" viewBox="0 0 900 540">
<rect width="100%" height="100%" fill="white"/>
<text x="450.0" y="28" text-anchor="middle" font-family="sans-serif" font-size="18" fill="#111827">Explicit K and compressed M</text>
<line x1="85" y1="475" x2="835" y2="475" stroke="#334155"/>
<line x1="85" y1="35" x2="85" y2="475" stroke="#334155"/>
<text x="450.0" y="525" text-anchor="middle" font-family="sans-serif" font-size="13" fill="#334155">explicit conflict edges K</text>
<text x="18" y="270.0" text-anchor="middle" transform="rotate(-90 18 270.0)" font-family="sans-serif" font-size="13" fill="#334155">compressed representation size M</text>
<path d="M 89.95,425.71 L 94.95,390.93 L 105.57,349.80 L 131.62,266.34 L 176.62,181.36 L 284.96,35.00" fill="none" stroke="#0f766e" stroke-width="2"/>
<circle cx="89.95" cy="425.71" r="3.5" fill="#0f766e"/>
<circle cx="94.95" cy="390.93" r="3.5" fill="#0f766e"/>
<circle cx="105.57" cy="349.80" r="3.5" fill="#0f766e"/>
<circle cx="131.62" cy="266.34" r="3.5" fill="#0f766e"/>
<circle cx="176.62" cy="181.36" r="3.5" fill="#0f766e"/>
<circle cx="284.96" cy="35.00" r="3.5" fill="#0f766e"/>
<text x="843" y="40" font-family="sans-serif" font-size="12" fill="#0f766e">dense-conflict</text>
<path d="M 85.16,473.79 L 85.00,475.00 L 85.10,472.58 L 85.31,469.25 L 85.42,466.84 L 85.10,471.98" fill="none" stroke="#b45309" stroke-width="2"/>
<circle cx="85.16" cy="473.79" r="3.5" fill="#b45309"/>
<circle cx="85.00" cy="475.00" r="3.5" fill="#b45309"/>
<circle cx="85.10" cy="472.58" r="3.5" fill="#b45309"/>
<circle cx="85.31" cy="469.25" r="3.5" fill="#b45309"/>
<circle cx="85.42" cy="466.84" r="3.5" fill="#b45309"/>
<circle cx="85.10" cy="471.98" r="3.5" fill="#b45309"/>
<text x="843" y="58" font-family="sans-serif" font-size="12" fill="#b45309">random-connected</text>
<path d="M 98.28,448.39 L 114.95,433.87 L 152.45,412.10 L 236.83,379.44 L 418.30,332.26 L 835.00,259.69" fill="none" stroke="#334155" stroke-width="2"/>
<circle cx="98.28" cy="448.39" r="3.5" fill="#334155"/>
<circle cx="114.95" cy="433.87" r="3.5" fill="#334155"/>
<circle cx="152.45" cy="412.10" r="3.5" fill="#334155"/>
<circle cx="236.83" cy="379.44" r="3.5" fill="#334155"/>
<circle cx="418.30" cy="332.26" r="3.5" fill="#334155"/>
<circle cx="835.00" cy="259.69" r="3.5" fill="#334155"/>
<text x="843" y="76" font-family="sans-serif" font-size="12" fill="#334155">representation-crossover</text>
</svg>
