<svg xmlns="http://www.w3.org/2000/svg" width="384" height="800" viewBox="0 0 384 800">
<rect width="100%" height="100%" fill="#ffffff"/>
<rect x="16" y="496" width="32" height="32" fill="#edf0f2"/>
<rect x="16" y="464" width="32" height="32" fill="#edf0f2"/>
<rect x="16" y="432" width="32" height="32" fill="#edf0f2"/>
<rect x="16" y="400" width="32" height="32" fill="#edf0f2"/>
<rect x="16" y="368" width="32" height="32" fill="#edf0f2"/>
<rect x="16" y="336" width="32" height="32" fill="#edf0f2"/>
<rect x="16" y="304" width="32" height="32" fill="#edf0f2"/>
<rect x="16" y="272" width="32" height="32" fill="#edf0f2"/>
<rect x="16" y="240" width="32" height="32" fill="#edf0f2"/>
<rect x="16" y="208" width="32" height="32" fill="#edf0f2"/>
<rect x="16" y="176" width="32" height="32" fill="#edf0f2"/>
<rect x="48" y="496" width="32" height="32" fill="#edf0f2"/>
<rect x="48" y="464" width="32" height="32" fill="#edf0f2"/>
<rect x="48" y="432" width="32" height="32" fill="#edf0f2"/>
<rect x="48" y="400" width="32" height="32" fill="#edf0f2"/>
<rect x="48" y="368" width="32" height="32" fill="#edf0f2"/>
<rect x="48" y="336" width="32" height="32" fill="#edf0f2"/>
<rect x="48" y="304" width="32" height="32" fill="#edf0f2"/>
<rect x="48" y="272" width="32" height="32" fill="#edf0f2"/>
<rect x="48" y="240" width="32" height="32" fill="#edf0f2"/>
<rect x="48" y="208" width="32" height="32" fill="#edf0f2"/>
<rect x="48" y="176" width="32" height="32" fill="#edf0f2"/>
<rect x="48" y="144" width="32" height="32" fill="#edf0f2"/>
<rect x="48" y="112" width="32" height="32" fill="#edf0f2"/>
<rect x="80" y="176" width="32" height="32" fill="#edf0f2"/>
<rect x="80" y="144" width="32" height="32" fill="#edf0f2"/>
<rect x="80" y="112" width="32" height="32" fill="#edf0f2"/>
<rect x="112" y="304" width="32" height="32" fill="#edf0f2"/>
<rect x="112" y="272" width="32" height="32" fill="#edf0f2"/>
<rect x="112" y="240" width="32" height="32" fill="#edf0f2"/>
<rect x="112" y="208" width="32" height="32" fill="#edf0f2"/>
<rect x="112" y="176" width="32" height="32" fill="#edf0f2"/>
<rect x="112" y="144" width="32" height="32" fill="#edf0f2"/>
<rect x="112" y="112" width="32" height="32" fill="#edf0f2"/>
<rect x="112" y="80" width="32" height="32" fill="#edf0f2"/>
<rect x="112" y="48" width="32" height="32" fill="#edf0f2"/>
<rect x="112" y="16" width="32" height="32" fill="#edf0f2"/>
<rect x="144" y="624" width="32" height="32" fill="#edf0f2"/>
<rect x="144" y="368" width="32" height="32" fill="#edf0f2"/>
<rect x="144" y="336" width="32" height="32" fill="#edf0f2"/>
<rect x="144" y="304" width="32" height="32" fill="#edf0f2"/>
<rect x="144" y="272" width="32" height="32" fill="#edf0f2"/>
<rect x="144" y="240" width="32" height="32" fill="#edf0f2"/>
<rect x="144" y="208" width="32" height="32" fill="#edf0f2"/>
<rect x="144" y="176" width="32" height="32" fill="#edf0f2"/>
<rect x="144" y="144" width="32" height="32" fill="#edf0f2"/>
<rect x="144" y="112" width="32" height="32" fill="#edf0f2"/>
<rect x="144" y="80" width="32" height="32" fill="#edf0f2"/>
<rect x="144" y="48" width="32" height="32" fill="#edf0f2"/>
<rect x="144" y="16" width="32" height="32" fill="#edf0f2"/>
<rect x="176" y="656" width="32" height="32" fill="#edf0f2"/>
<rect x="176" y="624" width="32" height="32" fill="#edf0f2"/>
<rect x="176" y="592" width="32" height="32" fill="#edf0f2"/>
<rect x="176" y="560" width="32" height="32" fill="#edf0f2"/>
<rect x="176" y="528" width="32" height="32" fill="#edf0f2"/>
<rect x="176" y="496" width="32" height="32" fill="#edf0f2"/>
<rect x="176" y="464" width="32" height="32" fill="#edf0f2"/>
<rect x="176" y="432" width="32" height="32" fill="#edf0f2"/>
<rect x="176" y="400" width="32" height="32" fill="#edf0f2"/>
<rect x="176" y="368" width="32" height="32" fill="#edf0f2"/>
<rect x="176" y="336" width="32" height="32" fill="#edf0f2"/>
<rect x="176" y="304" width="32" height="32" fill="#edf0f2"/>
<rect x="176" y="272" width="32" height="32" fill="#edf0f2"/>
<rect x="176" y="208" width="32" height="32" fill="#edf0f2"/>
<rect x="176" y="176" width="32" height="32" fill="#edf0f2"/>
<rect x="176" y="144" width="32" height="32" fill="#edf0f2"/>
<rect x="208" y="336" width="32" height="32" fill="#edf0f2"/>
<rect x="208" y="304" width="32" height="32" fill="#edf0f2"/>
<rect x="208" y="208" width="32" height="32" fill="#edf0f2"/>
<rect x="208" y="176" width="32" height="32" fill="#edf0f2"/>
<rect x="240" y="336" width="32" height="32" fill="#edf0f2"/>
<rect x="240" y="208" width="32" height="32" fill="#edf0f2"/>
<rect x="240" y="176" width="32" height="32" fill="#edf0f2"/>
<rect x="272" y="208" width="32" height="32" fill="#edf0f2"/>
<rect x="272" y="176" width="32" height="32" fill="#edf0f2"/>
<rect x="272" y="144" width="32" height="32" fill="#edf0f2"/>
<rect x="304" y="752" width="32" height="32" fill="#edf0f2"/>
<rect x="304" y="720" width="32" height="32" fill="#edf0f2"/>
<rect x="304" y="688" width="32" height="32" fill="#edf0f2"/>
<rect x="304" y="656" width="32" height="32" fill="#edf0f2"/>
<rect x="304" y="624" width="32" height="32" fill="#edf0f2"/>
<rect x="304" y="592" width="32" height="32" fill="#edf0f2"/>
<rect x="304" y="560" width="32" height="32" fill="#edf0f2"/>
<rect x="304" y="528" width="32" height="32" fill="#edf0f2"/>
<rect x="304" y="496" width="32" height="32" fill="#edf0f2"/>
<rect x="304" y="464" width="32" height="32" fill="#edf0f2"/>
<rect x="304" y="432" width="32" height="32" fill="#edf0f2"/>
<rect x="304" y="400" width="32" height="32" fill="#edf0f2"/>
<rect x="304" y="368" width="32" height="32" fill="#edf0f2"/>
<rect x="304" y="336" width="32" height="32" fill="#edf0f2"/>
<rect x="304" y="304" width="32" height="32" fill="#edf0f2"/>
<rect x="304" y="272" width="32" height="32" fill="#edf0f2"/>
<rect x="304" y="240" width="32" height="32" fill="#edf0f2"/>
<rect x="304" y="208" width="32" height="32" fill="#edf0f2"/>
<rect x="304" y="176" width="32" height="32" fill="#edf0f2"/>
<rect x="304" y="144" width="32" height="32" fill="#edf0f2"/>
<rect x="336" y="752" width="32" height="32" fill="#edf0f2"/>
<rect x="336" y="720" width="32" height="32" fill="#edf0f2"/>
<rect x="336" y="688" width="32" height="32" fill="#edf0f2"/>
<rect x="336" y="656" width="32" height="32" fill="#edf0f2"/>
<rect x="336" y="624" width="32" height="32" fill="#edf0f2"/>
<rect x="336" y="592" width="32" height="32" fill="#edf0f2"/>
<rect x="336" y="560" width="32" height="32" fill="#edf0f2"/>
<rect x="336" y="528" width="32" height="32" fill="#edf0f2"/>
<rect x="336" y="496" width="32" height="32" fill="#edf0f2"/>
<rect x="336" y="464" width="32" height="32" fill="#edf0f2"/>
<rect x="336" y="432" width="32" height="32" fill="#edf0f2"/>
<rect x="336" y="400" width="32" height="32" fill="#edf0f2"/>
<rect x="336" y="368" width="32" height="32" fill="#edf0f2"/>
<rect x="336" y="336" width="32" height="32" fill="#edf0f2"/>
<rect x="336" y="304" width="32" height="32" fill="#edf0f2"/>
<rect x="336" y="272" width="32" height="32" fill="#edf0f2"/>
<rect x="336" y="240" width="32" height="32" fill="#edf0f2"/>
<rect x="336" y="208" width="32" height="32" fill="#edf0f2"/>
<rect x="336" y="176" width="32" height="32" fill="#edf0f2"/>
<line x1="144" y1="336" x2="240" y2="336" stroke="#007f73" stroke-width="4" stroke-dasharray="none"/>
<line x1="48" y1="176" x2="208" y2="176" stroke="#007f73" stroke-width="4" stroke-dasharray="none"/>
<line x1="272" y1="176" x2="336" y2="176" stroke="#007f73" stroke-width="4" stroke-dasharray="none"/>
<line x1="112" y1="208" x2="112" y2="112" stroke="#007f73" stroke-width="4" stroke-dasharray="none"/>
<line x1="176" y1="656" x2="176" y2="624" stroke="#007f73" stroke-width="4" stroke-dasharray="none"/>
<line x1="176" y1="400" x2="176" y2="272" stroke="#007f73" stroke-width="4" stroke-dasharray="none"/>
<line x1="176" y1="240" x2="176" y2="144" stroke="#007f73" stroke-width="4" stroke-dasharray="none"/>
<line x1="208" y1="368" x2="208" y2="304" stroke="#007f73" stroke-width="4" stroke-dasharray="none"/>
<line x1="16" y1="528" x2="48" y2="528" stroke="#20262b" stroke-width="3" stroke-linecap="square"/>
<line x1="16" y1="496" x2="16" y2="528" stroke="#20262b" stroke-width="3" stroke-linecap="square"/>
<line x1="16" y1="464" x2="16" y2="496" stroke="#20262b" stroke-width="3" stroke-linecap="square"/>
<line x1="16" y1="432" x2="16" y2="464" stroke="#20262b" stroke-width="3" stroke-linecap="square"/>
<line x1="16" y1="400" x2="16" y2="432" stroke="#20262b" stroke-width="3" stroke-linecap="square"/>
<line x1="16" y1="368" x2="16" y2="400" stroke="#20262b" stroke-width="3" stroke-linecap="square"/>
<line x1="16" y1="336" x2="16" y2="368" stroke="#20262b" stroke-width="3" stroke-linecap="square"/>
<line x1="16" y1="304" x2="16" y2="336" stroke="#20262b" stroke-width="3" stroke-linecap="square"/>
<line x1="16" y1="272" x2="16" y2="304" stroke="#20262b" stroke-width="3" stroke-linecap="square"/>
<line x1="16" y1="240" x2="16" y2="272" stroke="#20262b" stroke-width="3" stroke-linecap="square"/>
<line x1="16" y1="208" x2="16" y2="240" stroke="#20262b" stroke-width="3" stroke-linecap="square"/>
<line x1="16" y1="176" x2="16" y2="208" stroke="#20262b" stroke-width="3" stroke-linecap="square"/>
<line x1="48" y1="528" x2="80" y2="528" stroke="#20262b" stroke-width="3" stroke-linecap="square"/>
<line x1="48" y1="176" x2="16" y2="176" stroke="#20262b" stroke-width="3" stroke-linecap="square"/>
<line x1="48" y1="144" x2="48" y2="176" stroke="#20262b" stroke-width="3" stroke-linecap="square"/>
<line x1="48" y1="112" x2="48" y2="144" stroke="#20262b" stroke-width="3" stroke-linecap="square"/>
<line x1="80" y1="528" x2="80" y2="496" stroke="#20262b" stroke-width="3" stroke-linecap="square"/>
<line x1="80" y1="496" x2="80" y2="464" stroke="#20262b" stroke-width="3" stroke-linecap="square"/>
<line x1="80" y1="464" x2="80" y2="432" stroke="#20262b" stroke-width="3" stroke-linecap="square"/>
<line x1="80" y1="432" x2="80" y2="400" stroke="#20262b" stroke-width="3" stroke-linecap="square"/>
<line x1="80" y1="400" x2="80" y2="368" stroke="#20262b" stroke-width="3" stroke-linecap="square"/>
<line x1="80" y1="368" x2="80" y2="336" stroke="#20262b" stroke-width="3" stroke-linecap="square"/>
<line x1="80" y1="336" x2="80" y2="304" stroke="#20262b" stroke-width="3" stroke-linecap="square"/>
<line x1="80" y1="304" x2="80" y2="272" stroke="#20262b" stroke-width="3" stroke-linecap="square"/>
<line x1="80" y1="272" x2="80" y2="240" stroke="#20262b" stroke-width="3" stroke-linecap="square"/>
<line x1="80" y1="240" x2="80" y2="208" stroke="#20262b" stroke-width="3" stroke-linecap="square"/>
<line x1="80" y1="208" x2="112" y2="208" stroke="#20262b" stroke-width="3" stroke-linecap="square"/>
<line x1="80" y1="112" x2="48" y2="112" stroke="#20262b" stroke-width="3" stroke-linecap="square"/>
<line x1="112" y1="336" x2="144" y2="336" stroke="#20262b" stroke-width="3" stroke-linecap="square"/>
<line x1="112" y1="304" x2="112" y2="336" stroke="#20262b" stroke-width="3" stroke-linecap="square"/>
<line x1="112" y1="272" x2="112" y2="304" stroke="#20262b" stroke-width="3" stroke-linecap="square"/>
<line x1="112" y1="240" x2="112" y2="272" stroke="#20262b" stroke-width="3" stroke-linecap="square"/>
<line x1="112" y1="208" x2="112" y2="240" stroke="#20262b" stroke-width="3" stroke-linecap="square"/>
<line x1="112" y1="112" x2="80" y2="112" stroke="#20262b" stroke-width="3" stroke-linecap="square"/>
<line x1="112" y1="80" x2="112" y2="112" stroke="#20262b" stroke-width="3" stroke-linecap="square"/>
<line x1="112" y1="48" x2="112" y2="80" stroke="#20262b" stroke-width="3" stroke-linecap="square"/>
<line x1="112" y1="16" x2="112" y2="48" stroke="#20262b" stroke-width="3" stroke-linecap="square"/>
<line x1="144" y1="656" x2="176" y2="656" stroke="#20262b" stroke-width="3" stroke-linecap="square"/>
<line x1="144" y1="624" x2="144" y2="656" stroke="#20262b" stroke-width="3" stroke-linecap="square"/>
<line x1="144" y1="400" x2="176" y2="400" stroke="#20262b" stroke-width="3" stroke-linecap="square"/>
<line x1="144" y1="368" x2="144" y2="400" stroke="#20262b" stroke-width="3" stroke-linecap="square"/>
<line x1="144" y1="336" x2="144" y2="368" stroke="#20262b" stroke-width="3" stroke-linecap="square"/>
<line x1="144" y1="16" x2="112" y2="16" stroke="#20262b" stroke-width="3" stroke-linecap="square"/>
<line x1="176" y1="688" x2="208" y2="688" stroke="#20262b" stroke-width="3" stroke-linecap="square"/>
<line x1="176" y1="656" x2="176" y2="688" stroke="#20262b" stroke-width="3" stroke-linecap="square"/>
<line x1="176" y1="624" x2="144" y2="624" stroke="#20262b" stroke-width="3" stroke-linecap="square"/>
<line x1="176" y1="592" x2="176" y2="624" stroke="#20262b" stroke-width="3" stroke-linecap="square"/>
<line x1="176" y1="560" x2="176" y2="592" stroke="#20262b" stroke-width="3" stroke-linecap="square"/>
<line x1="176" y1="528" x2="176" y2="560" stroke="#20262b" stroke-width="3" stroke-linecap="square"/>
<line x1="176" y1="496" x2="176" y2="528" stroke="#20262b" stroke-width="3" stroke-linecap="square"/>
<line x1="176" y1="464" x2="176" y2="496" stroke="#20262b" stroke-width="3" stroke-linecap="square"/>
<line x1="176" y1="432" x2="176" y2="464" stroke="#20262b" stroke-width="3" stroke-linecap="square"/>
<line x1="176" y1="400" x2="176" y2="432" stroke="#20262b" stroke-width="3" stroke-linecap="square"/>
<line x1="176" y1="272" x2="176" y2="240" stroke="#20262b" stroke-width="3" stroke-linecap="square"/>
<line x1="176" y1="240" x2="208" y2="240" stroke="#20262b" stroke-width="3" stroke-linecap="square"/>
<line x1="176" y1="144" x2="176" y2="112" stroke="#20262b" stroke-width="3" stroke-linecap="square"/>
<line x1="176" y1="112" x2="176" y2="80" stroke="#20262b" stroke-width="3" stroke-linecap="square"/>
<line x1="176" y1="80" x2="176" y2="48" stroke="#20262b" stroke-width="3" stroke-linecap="square"/>
<line x1="176" y1="48" x2="176" y2="16" stroke="#20262b" stroke-width="3" stroke-linecap="square"/>
<line x1="176" y1="16" x2="144" y2="16" stroke="#20262b" stroke-width="3" stroke-linecap="square"/>
<line x1="208" y1="688" x2="208" y2="656" stroke="#20262b" stroke-width="3" stroke-linecap="square"/>
<line x1="208" y1="656" x2="208" y2="624" stroke="#20262b" stroke-width="3" stroke-linecap="square"/>
<line x1="208" y1="624" x2="208" y2="592" stroke="#20262b" stroke-width="3" stroke-linecap="square"/>
<line x1="208" y1="592" x2="208" y2="560" stroke="#20262b" stroke-width="3" stroke-linecap="square"/>
<line x1="208" y1="560" x2="208" y2="528" stroke="#20262b" stroke-width="3" stroke-linecap="square"/>
<line x1="208" y1="528" x2="208" y2="496" stroke="#20262b" stroke-width="3" stroke-linecap="square"/>
<line x1="208" y1="496" x2="208" y2="464" stroke="#20262b" stroke-width="3" stroke-linecap="square"/>
<line x1="208" y1="464" x2="208" y2="432" stroke="#20262b" stroke-width="3" stroke-linecap="square"/>
<line x1="208" y1="432" x2="208" y2="400" stroke="#20262b" stroke-width="3" stroke-linecap="square"/>
<line x1="208" y1="400" x2="208" y2="368" stroke="#20262b" stroke-width="3" stroke-linecap="square"/>
<line x1="208" y1="368" x2="240" y2="368" stroke="#20262b" stroke-width="3" stroke-linecap="square"/>
<line x1="208" y1="304" x2="208" y2="272" stroke="#20262b" stroke-width="3" stroke-linecap="square"/>
<line x1="208" y1="272" x2="176" y2="272" stroke="#20262b" stroke-width="3" stroke-linecap="square"/>
<line x1="208" y1="240" x2="240" y2="240" stroke="#20262b" stroke-width="3" stroke-linecap="square"/>
<line x1="208" y1="176" x2="208" y2="144" stroke="#20262b" stroke-width="3" stroke-linecap="square"/>
<line x1="208" y1="144" x2="176" y2="144" stroke="#20262b" stroke-width="3" stroke-linecap="square"/>
<line x1="240" y1="368" x2="272" y2="368" stroke="#20262b" stroke-width="3" stroke-linecap="square"/>
<line x1="240" y1="336" x2="240" y2="304" stroke="#20262b" stroke-width="3" stroke-linecap="square"/>
<line x1="240" y1="304" x2="208" y2="304" stroke="#20262b" stroke-width="3" stroke-linecap="square"/>
<line x1="240" y1="240" x2="272" y2="240" stroke="#20262b" stroke-width="3" stroke-linecap="square"/>
<line x1="240" y1="176" x2="208" y2="176" stroke="#20262b" stroke-width="3" stroke-linecap="square"/>
<line x1="272" y1="368" x2="272" y2="336" stroke="#20262b" stroke-width="3" stroke-linecap="square"/>
<line x1="272" y1="336" x2="240" y2="336" stroke="#20262b" stroke-width="3" stroke-linecap="square"/>
<line x1="272" y1="240" x2="304" y2="240" stroke="#20262b" stroke-width="3" stroke-linecap="square"/>
<line x1="272" y1="176" x2="240" y2="176" stroke="#20262b" stroke-width="3" stroke-linecap="square"/>
<line x1="272" y1="144" x2="272" y2="176" stroke="#20262b" stroke-width="3" stroke-linecap="square"/>
<line x1="304" y1="784" x2="336" y2="784" stroke="#20262b" stroke-width="3" stroke-linecap="square"/>
<line x1="304" y1="752" x2="304" y2="784" stroke="#20262b" stroke-width="3" stroke-linecap="square"/>
<line x1="304" y1="720" x2="304" y2="752" stroke="#20262b" stroke-width="3" stroke-linecap="square"/>
<line x1="304" y1="688" x2="304" y2="720" stroke="#20262b" stroke-width="3" stroke-linecap="square"/>
<line x1="304" y1="656" x2="304" y2="688" stroke="#20262b" stroke-width="3" stroke-linecap="square"/>
<line x1="304" y1="624" x2="304" y2="656" stroke="#20262b" stroke-width="3" stroke-linecap="square"/>
<line x1="304" y1="592" x2="304" y2="624" stroke="#20262b" stroke-width="3" stroke-linecap="square"/>
<line x1="304" y1="560" x2="304" y2="592" stroke="#20262b" stroke-width="3" stroke-linecap="square"/>
<line x1="304" y1="528" x2="304" y2="560" stroke="#20262b" stroke-width="3" stroke-linecap="square"/>
<line x1="304" y1="496" x2="304" y2="528" stroke="#20262b" stroke-width="3" stroke-linecap="square"/>
<line x1="304" y1="464" x2="304" y2="496" stroke="#20262b" stroke-width="3" stroke-linecap="square"/>
<line x1="304" y1="432" x2="304" y2="464" stroke="#20262b" stroke-width="3" stroke-linecap="square"/>
<line x1="304" y1="400" x2="304" y2="432" stroke="#20262b" stroke-width="3" stroke-linecap="square"/>
<line x1="304" y1="368" x2="304" y2="400" stroke="#20262b" stroke-width="3" stroke-linecap="square"/>
<line x1="304" y1="336" x2="304" y2="368" stroke="#20262b" stroke-width="3" stroke-linecap="square"/>
<line x1="304" y1="304" x2="304" y2="336" stroke="#20262b" stroke-width="3" stroke-linecap="square"/>
<line x1="304" y1="272" x2="304" y2="304" stroke="#20262b" stroke-width="3" stroke-linecap="square"/>
<line x1="304" y1="240" x2="304" y2="272" stroke="#20262b" stroke-width="3" stroke-linecap="square"/>
<line x1="304" y1="144" x2="272" y2="144" stroke="#20262b" stroke-width="3" stroke-linecap="square"/>
<line x1="336" y1="784" x2="368" y2="784" stroke="#20262b" stroke-width="3" stroke-linecap="square"/>
<line x1="336" y1="176" x2="336" y2="144" stroke="#20262b" stroke-width="3" stroke-linecap="square"/>
<line x1="336" y1="144" x2="304" y2="144" stroke="#20262b" stroke-width="3" stroke-linecap="square"/>
<line x1="368" y1="784" x2="368" y2="752" stroke="#20262b" stroke-width="3" stroke-linecap="square"/>
<line x1="368" y1="752" x2="368" y2="720" stroke="#20262b" stroke-width="3" stroke-linecap="square"/>
<line x1="368" y1="720" x2="368" y2="688" stroke="#20262b" stroke-width="3" stroke-linecap="square"/>
<line x1="368" y1="688" x2="368" y2="656" stroke="#20262b" stroke-width="3" stroke-linecap="square"/>
<line x1="368" y1="656" x2="368" y2="624" stroke="#20262b" stroke-width="3" stroke-linecap="square"/>
<line x1="368" y1="624" x2="368" y2="592" stroke="#20262b" stroke-width="3" stroke-linecap="square"/>
<line x1="368" y1="592" x2="368" y2="560" stroke="#20262b" stroke-width="3" stroke-linecap="square"/>
<line x1="368" y1="560" x2="368" y2="528" stroke="#20262b" stroke-width="3" stroke-linecap="square"/>
<line x1="368" y1="528" x2="368" y2="496" stroke="#20262b" stroke-width="3" stroke-linecap="square"/>
<line x1="368" y1="496" x2="368" y2="464" stroke="#20262b" stroke-width="3" stroke-linecap="square"/>
<line x1="368" y1="464" x2="368" y2="432" stroke="#20262b" stroke-width="3" stroke-linecap="square"/>
<line x1="368" y1="432" x2="368" y2="400" stroke="#20262b" stroke-width="3" stroke-linecap="square"/>
<line x1="368" y1="400" x2="368" y2="368" stroke="#20262b" stroke-width="3" stroke-linecap="square"/>
<line x1="368" y1="368" x2="368" y2="336" stroke="#20262b" stroke-width="3" stroke-linecap="square"/>
<line x1="368" y1="336" x2="368" y2="304" stroke="#20262b" stroke-width="3" stroke-linecap="square"/>
<line x1="368" y1="304" x2="368" y2="272" stroke="#20262b" stroke-width="3" stroke-linecap="square"/>
<line x1="368" y1="272" x2="368" y2="240" stroke="#20262b" stroke-width="3" stroke-linecap="square"/>
<line x1="368" y1="240" x2="368" y2="208" stroke="#20262b" stroke-width="3" stroke-linecap="square"/>
<line x1="368" y1="208" x2="368" y2="176" stroke="#20262b" stroke-width="3" stroke-linecap="square"/>
<line x1="368" y1="176" x2="336" y2="176" stroke="#20262b" stroke-width="3" stroke-linecap="square"/>
<circle cx="48" cy="176" r="4" fill="#d62828" stroke="#ffffff" stroke-width="1"/>
<circle cx="80" cy="208" r="4" fill="#d62828" stroke="#ffffff" stroke-width="1"/>
<circle cx="112" cy="208" r="4" fill="#d62828" stroke="#ffffff" stroke-width="1"/>
<circle cx="112" cy="112" r="4" fill="#d62828" stroke="#ffffff" stroke-width="1"/>
<circle cx="144" cy="336" r="4" fill="#d62828" stroke="#ffffff" stroke-width="1"/>
<circle cx="176" cy="656" r="4" fill="#d62828" stroke="#ffffff" stroke-width="1"/>
<circle cx="176" cy="624" r="4" fill="#d62828" stroke="#ffffff" stroke-width="1"/>
<circle cx="176" cy="400" r="4" fill="#d62828" stroke="#ffffff" stroke-width="1"/>
<circle cx="176" cy="272" r="4" fill="#d62828" stroke="#ffffff" stroke-width="1"/>
<circle cx="176" cy="240" r="4" fill="#d62828" stroke="#ffffff" stroke-width="1"/>
<circle cx="176" cy="144" r="4" fill="#d62828" stroke="#ffffff" stroke-width="1"/>
<circle cx="208" cy="368" r="4" fill="#d62828" stroke="#ffffff" stroke-width="1"/>
<circle cx="208" cy="304" r="4" fill="#d62828" stroke="#ffffff" stroke-width="1"/>
<circle cx="208" cy="176" r="4" fill="#d62828" stroke="#ffffff" stroke-width="1"/>
<circle cx="240" cy="336" r="4" fill="#d62828" stroke="#ffffff" stroke-width="1"/>
<circle cx="272" cy="176" r="4" fill="#d62828" stroke="#ffffff" stroke-width="1"/>
<circle cx="304" cy="240" r="4" fill="#d62828" stroke="#ffffff" stroke-width="1"/>
<circle cx="336" cy="176" r="4" fill="#d62828" stroke="#ffffff" stroke-width="1"/>
</svg>
